<svg id="Capa_1" enable-background="new 0 0 513.57 513.57" height="512" viewBox="0 0 513.57 513.57" width="512" xmlns="http://www.w3.org/2000/svg"><g><path d="m256.785 167.901c-13.255 0-24.039 10.784-24.039 24.039s10.784 24.039 24.039 24.039 24.039-10.784 24.039-24.039-10.783-24.039-24.039-24.039zm0 33.079c-4.984 0-9.039-4.055-9.039-9.039s4.055-9.039 9.039-9.039 9.039 4.055 9.039 9.039-4.054 9.039-9.039 9.039z"/><path d="m215.489 86.298c12.407 0 22.5-10.093 22.5-22.5 0-.892.062-1.783.183-2.65 1.312-9.4 9.482-16.382 19.012-16.143 9.795.197 17.865 8 18.371 17.763.271 5.228-1.554 10.187-5.14 13.963-3.59 3.781-8.431 5.864-13.63 5.864-12.407 0-22.5 10.093-22.5 22.5v29.355c0 12.407 10.093 22.5 22.5 22.5s22.5-10.093 22.5-22.5v-10.979c9.007-3.399 17.139-8.777 23.764-15.755 12.167-12.815 18.362-29.606 17.445-47.28-1.723-33.209-29.134-59.75-62.4-60.421-32.323-.689-60.029 22.943-64.491 54.914-.408 2.922-.614 5.906-.614 8.87 0 12.406 10.093 22.499 22.5 22.499zm-7.029-29.296c3.411-24.447 24.625-42.485 49.329-41.99 25.445.513 46.409 20.807 47.727 46.201.702 13.525-4.037 26.373-13.343 36.175-6.077 6.4-13.821 11.043-22.396 13.427-3.245.902-5.491 3.858-5.491 7.226v16.409c0 4.136-3.365 7.5-7.5 7.5-4.136 0-7.5-3.364-7.5-7.5v-29.355c0-4.136 3.364-7.5 7.5-7.5 9.354 0 18.058-3.742 24.508-10.536 6.446-6.789 9.729-15.692 9.241-25.068-.912-17.579-15.428-31.627-33.044-31.982-.237-.005-.472-.007-.708-.007-16.815 0-31.137 12.384-33.466 29.073-.217 1.551-.327 3.141-.327 4.724 0 4.136-3.364 7.5-7.5 7.5s-7.5-3.364-7.5-7.5c-.001-2.273.157-4.56.47-6.797z"/><path d="m33.124 432.651c-4.134-.09-7.562 3.215-7.64 7.357l-1.244 65.921c-.078 4.142 3.216 7.562 7.357 7.64.048.001.096.001.145.001 4.076 0 7.418-3.265 7.496-7.358l1.244-65.921c.077-4.142-3.217-7.562-7.358-7.64z"/><path d="m486.557 358.944c-.646-34.253-18.464-65.404-47.663-83.327l-90.968-55.839-17.899-15.892c-4.382-10.173-11.605-18.871-20.974-25.07-.08-.055-.161-.108-.243-.16-1.375-.9-2.795-1.747-4.258-2.537l-10.04-5.419c-3.645-1.967-8.195-.606-10.163 3.038-1.967 3.645-.607 8.195 3.038 10.163l9.774 5.276c-1.347 16.243-12.426 29.913-28.288 34.518l-12.087 3.508-12.087-3.508c-15.862-4.604-26.941-18.275-28.288-34.518l9.774-5.276c3.645-1.968 5.005-6.518 3.038-10.163-1.968-3.644-6.516-5.004-10.163-3.038l-10.041 5.42c-1.464.79-2.883 1.636-4.259 2.537-.081.051-.162.104-.241.158-9.371 6.2-16.594 14.898-20.976 25.073l-17.893 15.887-90.973 55.841c-29.199 17.923-47.017 49.073-47.663 83.327l-.927 49.101c-.078 4.142 3.216 7.562 7.357 7.64.048.001.096.001.145.001 4.076 0 7.418-3.265 7.496-7.358l.927-49.101c.25-13.229 3.521-25.908 9.335-37.24l42.091 57.418v123.878c0 4.142 3.358 7.5 7.5 7.5s7.5-3.358 7.5-7.5v-126.332c0-1.595-.508-3.148-1.451-4.434l-46.968-64.071c6.145-7.835 13.715-14.647 22.506-20.043l51.391-31.545c-17.755 27.821-27.484 60.405-27.484 94.031 0 4.699 3.823 8.522 8.523 8.522h9.674l3.69 5.624c30.311 46.188 72.409 83.589 121.816 108.269v29.98c0 4.142 3.358 7.5 7.5 7.5s7.5-3.358 7.5-7.5v-30.838c28.234-14.315 54.048-32.75 76.76-54.857 2.968-2.889 3.032-7.638.143-10.606-2.89-2.969-7.638-3.032-10.606-.143-14.218 13.84-29.716 26.163-46.301 36.861l22.49-43.244c25.767-49.545 34.974-107.086 26.001-162.196.673-3.32 1.05-6.706 1.124-10.126l3.714 3.297c32.5 28.855 51.796 69.73 53.553 112.979h-7.114c-2.527 0-4.884 1.272-6.271 3.385l-5.912 9.009c-6.138 9.353-12.905 18.486-20.114 27.146-2.65 3.184-2.218 7.913.966 10.562 1.402 1.167 3.103 1.736 4.794 1.736 2.15 0 4.285-.92 5.768-2.702 7.571-9.095 14.679-18.688 21.126-28.514l3.69-5.624h9.674c4.7 0 8.523-3.823 8.523-8.522 0-33.626-9.729-66.209-27.483-94.03l51.389 31.544c8.791 5.396 16.361 12.208 22.506 20.044l-46.968 64.071c-.943 1.286-1.451 2.839-1.451 4.434v126.333c0 4.142 3.358 7.5 7.5 7.5s7.5-3.358 7.5-7.5v-123.877l42.091-57.417c5.814 11.332 9.086 24.011 9.335 37.24l2.774 146.985c.077 4.093 3.419 7.358 7.496 7.358.048 0 .096 0 .145-.001 4.141-.078 7.435-3.499 7.357-7.64zm-213.503-120.844c18.664-5.417 32.53-19.927 37.372-37.978 4.428 5.512 7.447 12.116 8.706 19.323 2.256 12.916-1.465 25.928-10.208 35.698l-13.898 15.531-25.356-31.592zm-16.269 8.895 17.866 22.26-3.719 6.403h-28.292l-3.72-6.404zm-16.269-8.895 3.386.983-25.356 31.592-13.898-15.531c-8.744-9.771-12.464-22.782-10.208-35.698 1.258-7.208 4.278-13.811 8.706-19.323 4.84 18.05 18.707 32.56 37.37 37.977zm-99.659 118.704-5.912-9.008c-1.387-2.113-3.744-3.385-6.271-3.385h-7.114c1.757-43.249 21.054-84.124 53.553-112.979l3.712-3.296c.074 3.419.451 6.802 1.123 10.12-3.597 22.068-4.347 44.531-2.213 66.791.372 3.88 3.637 6.785 7.457 6.785.239 0 .481-.011.724-.035 4.124-.395 7.146-4.058 6.75-8.181-1.277-13.321-1.439-26.719-.535-40.05.441.53.875 1.065 1.337 1.581l15.749 17.598c2.407 2.69 5.825 4.214 9.422 4.214.114 0 .228-.002.341-.005 3.722-.1 7.194-1.822 9.525-4.727l.349-.435 1.64 2.823c1.41 2.428 3.614 4.241 6.167 5.221l-12.816 112.518-4.586-8.819c-9.727-18.704-17.019-38.64-21.673-59.254-.912-4.04-4.923-6.577-8.968-5.664-4.04.912-6.576 4.927-5.664 8.968 4.938 21.871 12.675 43.024 22.997 62.872l22.485 43.235c-34.819-22.475-64.72-52.055-87.579-86.888zm115.929 103.065c-1.38-.69-2.753-1.391-4.12-2.102l-16.435-31.601 15.435-135.509h10.238l15.435 135.511-16.43 31.591c-1.369.711-2.741 1.42-4.123 2.11zm37.526-66.334-4.588 8.821-12.817-112.519c2.553-.98 4.758-2.793 6.168-5.221l1.639-2.823.349.435c2.331 2.904 5.803 4.626 9.525 4.726.114.003.228.005.341.005 3.598 0 7.016-1.524 9.422-4.214l15.749-17.599c.461-.515.893-1.049 1.334-1.578 2.97 44.739-6.389 90.1-27.122 129.967z"/></g></svg>