<svg id="_x33_0" enable-background="new 0 0 64 64" height="512" viewBox="0 0 64 64" width="512" xmlns="http://www.w3.org/2000/svg"><g><g><g><path d="m27 36h-16-4-3c-1.1 0-2-.9-2-2v-2c0-1.1.9-2 2-2h12 5z" fill="#aab2bd"/></g><g><path d="m62 32v2c0 1.1-.9 2-2 2h-3-4-18l-6-6h13.12 17.88c1.1 0 2 .9 2 2z" fill="#aab2bd"/></g><g><path d="m52.33 17.63c1.07.24 2.18.03 3.09-.58l.82-.55c.5-.32 1.08-.5 1.67-.5h.68c.9 0 1.77.36 2.41 1s1 1.51 1 2.41v7.35c0 .79-.32 1.56-.88 2.12l-1.12 1.12h-17.88-13.12l-4-4-4-2-2.35 1.18c-.54.27-1 .65-1.36 1.11-.35.43-.6.94-.74 1.49l-.55 2.22h-12c-1.3-1.96-2-4.25-2-6.61 0-2.31.94-4.41 2.46-5.93s3.62-2.46 5.93-2.46h2.79c.85 0 1.69.04 2.53.12 2.39.24 4.72.89 6.96 1.77l4.29 1.7c2.36-1.68 5.19-2.59 8.11-2.59h8.39c1.02 0 2.04.11 3.04.33z" fill="#ffeaa7"/></g><g><path d="m35 36-4 4-4-4-6-6-3.71-3.71c.36-.46.82-.84 1.36-1.11l2.35-1.18 4 2 4 4z" fill="#f5f7fa"/></g><g><path d="m11 52.42v2.58c0 .55-.45 1-1 1h-2c-.55 0-1-.45-1-1v-2.58-16.42h4v11 4z" fill="#ccd1d9"/></g><g><path d="m29 47-.71.71c-.18.18-.29.44-.29.7v2.59h-17v-4z" fill="#ccd1d9"/></g><g><path d="m33 47h20v4h-19v-2.59c0-.26-.11-.52-.29-.7z" fill="#ccd1d9"/></g><g><path d="m57 52.42v2.58c0 .55-.45 1-1 1h-2c-.55 0-1-.45-1-1v-2.58-1.42-4-11h4z" fill="#ccd1d9"/></g><g><path d="m11 52.42c1.77.77 3 2.53 3 4.58 0 2.76-2.24 5-5 5s-5-2.24-5-5c0-2.05 1.23-3.81 3-4.58v2.58c0 .55.45 1 1 1h2c.55 0 1-.45 1-1z" fill="#838f9b"/></g><g><path d="m57 52.42c1.77.77 3 2.53 3 4.58 0 2.76-2.24 5-5 5s-5-2.24-5-5c0-2.05 1.23-3.81 3-4.58v2.58c0 .55.45 1 1 1h2c.55 0 1-.45 1-1z" fill="#838f9b"/></g><g><path d="m33 47 .71.71c.18.18.29.44.29.7v2.59 2c0 1.1-.9 2-2 2h-2c-1.1 0-2-.9-2-2v-2-2.59c0-.26.11-.52.29-.7l.71-.71 2-2z" fill="#fcd770"/></g><g><path d="m37.17 38.17c.53.53.83 1.25.83 2 0 .78-.32 1.49-.83 2s-1.22.83-2 .83c-.75 0-1.47-.3-2-.83l-2.17-2.17 4-4z" fill="#f0d0b4"/></g></g><g><path d="m10.295 23.672c.659-.44 1.426-.672 2.219-.672h1.486v-2h-1.486c-1.189 0-2.34.349-3.328 1.008l-1.74 1.16 1.109 1.664z"/><path d="m63 26.757v-7.343c0-1.179-.459-2.288-1.293-3.121-.833-.834-1.942-1.293-3.121-1.293h-.678c-.792 0-1.56.232-2.219.672l-.824.549c-.677.451-1.522.608-2.315.433l-5.833-1.296c-1.067-.238-2.161-.358-3.254-.358h-8.395c-2.929 0-5.788.874-8.221 2.469l-3.811-1.507c-2.554-1.009-4.919-1.609-7.233-1.835-.866-.084-1.748-.127-2.619-.127h-2.79c-5.18 0-9.394 4.214-9.394 9.395 0 2.115.52 4.171 1.5 6.023-.892.52-1.5 1.477-1.5 2.582v2c0 1.654 1.346 3 3 3h2v14.816c-1.838 1.064-3 3.027-3 5.184 0 3.309 2.691 6 6 6s6-2.691 6-6c0-2.037-1.036-3.902-2.698-5h14.698v1c0 1.654 1.346 3 3 3h2c1.654 0 3-1.346 3-3v-1h16.698c-1.662 1.098-2.698 2.963-2.698 5 0 3.309 2.691 6 6 6s6-2.691 6-6c0-2.157-1.162-4.12-3-5.184v-14.816h2c1.654 0 3-1.346 3-3v-2c0-.977-.476-1.837-1.201-2.385l.029-.029c.756-.755 1.172-1.76 1.172-2.829zm-52.605-10.757h2.79c.807 0 1.623.04 2.426.118 2.125.208 4.314.765 6.691 1.705l2.679 1.059-1.62 1.35 1.28 1.536 2.106-1.755c2.331-1.943 5.287-3.013 8.322-3.013h8.395c.947 0 1.896.104 2.82.31l3.157.702 2.702 4.503 1.715-1.029-1.727-2.878c1.32.29 2.72.028 3.844-.722l.824-.549c.33-.22.713-.336 1.109-.336h.678c.635 0 1.258.258 1.707.707s.707 1.071.707 1.706v7.343c0 .534-.208 1.037-.586 1.415l-.828.828h-17.465c-.618 0-1.121-.503-1.121-1.121 0-.3.117-.581.328-.793l2.379-2.379-1.414-1.414-2.379 2.379c-.589.589-.914 1.373-.914 2.207 0 .396.082.772.217 1.121h-9.803l-3.707-3.707-1.414 1.414 9.293 9.293-2.586 2.586-12.277-12.277c.12-.084.237-.171.369-.238l2.354-1.177-.895-1.789-2.354 1.177c-1.307.653-2.26 1.841-2.615 3.259l-.363 1.459h-10.661c-1.017-1.695-1.558-3.62-1.558-5.605 0-4.078 3.317-7.395 7.395-7.395zm41.605 30h-18.586l-1.414-1.414v-2.172l.465.465c.723.723 1.684 1.121 2.706 1.121 2.112 0 3.829-1.718 3.829-3.828 0-1.023-.398-1.984-1.122-2.707l-.464-.465h14.586zm-23.414 0h-16.586v-9h14.586l3.414 3.414v4.172zm7.879-7.121c.34.341.535.811.535 1.293 0 1.008-.82 1.828-1.829 1.828-.488 0-.948-.19-1.293-.535l-1.464-1.465 2.586-2.586zm-18.941-10.852c.006-.023.018-.043.024-.065l1.038 1.038h-1.305zm-14.524 5.973v-2c0-.551.449-1 1-1h16.586l4 4h-20.586c-.551 0-1-.448-1-1zm7 3v18h-2v-18zm-1 24c-2.206 0-4-1.794-4-4 0-.994.368-1.929 1-2.646v.646c0 1.103.897 2 2 2h2c1.103 0 2-.897 2-2v-.646c.632.717 1 1.652 1 2.646 0 2.206-1.794 4-4 4zm3-11v-2h15.046c-.029.136-.046.274-.046.414v1.586zm21 3c0 .552-.449 1-1 1h-2c-.551 0-1-.448-1-1v-4.586l2-2 2 2zm1.954-5h17.046v2h-17v-1.586c0-.14-.017-.278-.046-.414zm24.046 9c0 2.206-1.794 4-4 4s-4-1.794-4-4c0-.994.368-1.929 1-2.646v.646c0 1.103.897 2 2 2h2c1.103 0 2-.897 2-2v-.646c.632.717 1 1.652 1 2.646zm-3-2h-2v-18h2zm5-21c0 .552-.449 1-1 1h-24.586l-4-4h28.586c.551 0 1 .449 1 1z"/><path d="m57 23.812c0-.431.069-.856.205-1.265l.744-2.23-1.897-.633-.744 2.23c-.204.613-.308 1.251-.308 1.898v3.188h2z"/></g></g></svg>