<svg id="Capa_1" enable-background="new 0 0 512 512" height="512" viewBox="0 0 512 512" width="512" xmlns="http://www.w3.org/2000/svg"><g><g><path d="m256 504.499-248.5-42.427v-412.146l248.5-42.427z" fill="#595959"/></g><g><path d="m7.5 462.072 248.5 42.427v-103.036l-248.5-22.224z" fill="#bebebe"/></g><g><path d="m7.5 86.292v44.447l248.5-38.386v-44.447z" fill="#fcee56"/></g><g><path d="m256 504.499 248.5-42.427v-412.146l-248.5-42.427z" fill="#434343"/></g><g><path d="m290.742 398.356 111.118-9.938v-186.138l-111.118-14.972z" fill="#fbd307"/></g><g><path d="m504.5 462.072-248.5 42.427v-103.036l248.5-22.224z" fill="#9b9b9b"/></g><g><path d="m504.5 86.292v44.447l-248.5-38.386v-44.447z" fill="#fbd307"/></g><g><path d="m504.5 157.003v30.305l-248.5-38.386v-30.305z" fill="#fbd307"/></g><g><path d="m7.5 157.003v30.305l248.5-38.386v-30.305z" fill="#fcee56"/></g><path d="m504.5 276.642c4.143 0 7.5-3.358 7.5-7.5v-219.216c0-3.655-2.635-6.778-6.238-7.393 0 0-248.273-42.384-248.502-42.423-.826-.141-1.678-.148-2.522-.003l-248.5 42.426c-3.603.615-6.238 3.738-6.238 7.393v219.216c0 4.142 3.358 7.5 7.5 7.5s7.5-3.358 7.5-7.5v-75.404l233.5-36.069v235.592l-233.5-20.881v-68.122c0-4.142-3.358-7.5-7.5-7.5s-7.5 3.358-7.5 7.5v157.814c0 3.655 2.635 6.778 6.238 7.393l248.5 42.427c.42.072.842.107 1.262.107.423 0 .844-.038 1.258-.108.446-.071 248.504-42.425 248.504-42.425 3.604-.615 6.238-3.738 6.238-7.393v-157.815c0-4.142-3.357-7.5-7.5-7.5s-7.5 3.358-7.5 7.5v68.122l-87.64 7.838v-75.959c0-4.142-3.357-7.5-7.5-7.5s-7.5 3.358-7.5 7.5v77.301l-96.118 8.596v-194.27l96.118 12.951v60.305c0 4.142 3.357 7.5 7.5 7.5s7.5-3.358 7.5-7.5v-66.862c0-3.755-2.777-6.932-6.498-7.433l-111.119-14.972c-2.146-.292-4.309.362-5.938 1.786s-2.563 3.483-2.563 5.646v204.188l-19.742 1.766v-235.591l233.5 36.069v75.404c0 4.141 3.357 7.499 7.5 7.499zm-7.5-154.65-233.5-36.07v-29.268l233.5 36.068zm-248.5-36.07-233.5 36.069v-29.269l233.5-36.069zm-233.5 51.247 233.5-36.069v11.086l-233.5 36.07zm248.5-36.069 233.5 36.069v11.086l-233.5-36.069zm233.5-23.556-233.5-36.068v-25.088l233.5 39.866zm-248.5-61.156v25.087l-233.5 36.069v-21.29zm-233.5 162.173v-15.127l233.5-36.069v15.127zm396.994 246.937v-30.456l49.65-4.44v28.236zm19.346 12.539v28.917l-49.65 8.477v-30.734zm-34.346-41.654v31.127l-49.65 6.66v-33.347zm-30.305 50.327v31.282l-52.682 8.995v-33.21zm-67.681 42.838-35.508 6.062v-35.058l35.508-4.763zm-184.002-62.038v-31.127l49.651 4.44v33.347zm-15-2.012-49.65-6.66v-28.236l49.65 4.44zm30.305 19.2v30.734l-49.65-8.477v-28.917zm15 2.012 52.681 7.067v33.21l-52.681-8.994zm34.346-10.527v-34.017l68.843 6.157v37.096zm-144.302-46.923v27.565l-20.355-2.73v-26.655zm-20.355 39.969 50.661 6.796v28.369l-50.661-8.65zm197.992 60.319v-33.759l35.508 4.763v35.058zm233.348-25.154v-28.369l50.66-6.796v26.515zm50.66-50.299-20.355 2.731v-27.566l20.355-1.82zm-205.492-8.278h.001l40.834-3.652v34.017l-68.844 9.235v-37.096zm-28.008-263.325v-15.127l233.5 36.069v15.127z"/></g></svg>