<?xml version="1.0" encoding="iso-8859-1"?>
<!-- Generator: Adobe Illustrator 19.0.0, SVG Export Plug-In . SVG Version: 6.00 Build 0)  -->
<svg version="1.1" id="Capa_1" xmlns="http://www.w3.org/2000/svg" xmlns:xlink="http://www.w3.org/1999/xlink" x="0px" y="0px"
	 viewBox="0 0 480 480" style="enable-background:new 0 0 480 480;" xml:space="preserve">
<g>
	<g>
		<path d="M472,432h-48V263.088c2.628,0.579,5.309,0.885,8,0.912c22.08-0.026,39.974-17.92,40-40c0-0.584-0.064-1.166-0.192-1.736
			l-16-72c-0.814-3.66-4.059-6.263-7.808-6.264h-24v-24c0-4.418-3.582-8-8-8h-64V96h16c4.418,0,8-3.582,8-8V8c0-4.418-3.582-8-8-8
			H112c-4.418,0-8,3.582-8,8v80c0,4.418,3.582,8,8,8h16v16H64c-4.418,0-8,3.582-8,8v24H32c-3.749,0.001-6.995,2.604-7.808,6.264
			l-16,72C8.064,222.834,8,223.416,8,224c0.026,22.08,17.92,39.974,40,40c2.691-0.027,5.372-0.333,8-0.912V432H8
			c-4.418,0-8,3.582-8,8v32c0,4.418,3.582,8,8,8h464c4.418,0,8-3.582,8-8v-32C480,435.582,476.418,432,472,432z M441.6,160
			l14.4,64.8c-0.432,12.941-11.051,23.207-24,23.2c-4.218-0.001-8.36-1.125-12-3.256c-5.601-3.258-9.654-8.632-11.248-14.912
			c-0.522-1.899-0.775-3.862-0.752-5.832c0-0.294-0.016-0.588-0.048-0.88L400.936,160H441.6z M368,304h-80c-4.418,0-8,3.582-8,8v120
			H72V255.712c3.025-2.233,5.718-4.883,8-7.872c13.048,17.673,37.952,21.423,55.625,8.375c3.194-2.358,6.017-5.181,8.375-8.375
			c13.048,17.673,37.952,21.423,55.625,8.375c3.194-2.358,6.017-5.181,8.375-8.375c13.048,17.673,37.952,21.423,55.625,8.375
			c3.194-2.358,6.017-5.181,8.375-8.375c13.048,17.673,37.952,21.423,55.625,8.375c3.194-2.358,6.017-5.181,8.375-8.375
			c13.055,17.673,37.965,21.417,55.638,8.362c3.188-2.355,6.007-5.174,8.362-8.362c2.281,2.982,4.975,5.625,8,7.848V432h-32V312
			C376,307.582,372.418,304,368,304z M360,320v112h-64V320H360z M88,224.416L95.2,160h47.904l-7.016,63.12
			c-0.046,0.292-0.075,0.585-0.088,0.88c0.019,2.036-0.251,4.064-0.8,6.024c-3.379,12.817-16.508,20.468-29.325,17.089
			c-8.427-2.221-14.987-8.836-17.139-17.281C88.253,228.067,88.006,226.246,88,224.416z M152,224.416L159.2,160H200v64
			c0.019,2.036-0.251,4.064-0.8,6.024c-3.379,12.817-16.508,20.468-29.325,17.089c-8.427-2.221-14.987-8.836-17.139-17.281
			C152.253,228.067,152.006,226.246,152,224.416z M216,224v-64h48v64c0.019,2.036-0.251,4.064-0.8,6.024
			c-3.379,12.817-16.508,20.468-29.325,17.089c-8.427-2.221-14.987-8.836-17.139-17.281C216.219,227.932,215.972,225.969,216,224z
			 M280,224v-64h40.8l7.2,64.416c-0.021,1.894-0.29,3.776-0.8,5.6c-3.379,12.817-16.508,20.468-29.325,17.089
			c-8.427-2.221-14.987-8.836-17.139-17.281C280.22,227.927,279.972,225.966,280,224z M336.936,160h47.904l7.2,64.416
			c-0.021,1.894-0.29,3.776-0.8,5.6c-3.379,12.817-16.508,20.468-29.325,17.089c-8.427-2.221-14.987-8.836-17.139-17.281
			c-0.529-1.896-0.791-3.856-0.776-5.824c0-0.294-0.016-0.588-0.048-0.88L336.936,160z M120,80V16h240v64H120z M336,96v16H144V96
			H336z M72,128h336v16H72V128z M48,248c-12.949,0.007-23.568-10.259-24-23.2L38.4,160h40.648l-7.016,63.12
			c-0.027,0.293-0.037,0.586-0.032,0.88c0.016,2.03-0.254,4.053-0.8,6.008c-1.613,6.212-5.647,11.519-11.2,14.736
			C56.36,246.875,52.218,247.999,48,248z M464,464H16v-16h448V464z"/>
	</g>
</g>
<g>
	<g>
		<path d="M240,304H112c-4.418,0-8,3.582-8,8v80c0,4.418,3.582,8,8,8h128c4.418,0,8-3.582,8-8v-80C248,307.582,244.418,304,240,304z
			 M232,384H120v-64h112V384z"/>
	</g>
</g>
<g>
</g>
<g>
</g>
<g>
</g>
<g>
</g>
<g>
</g>
<g>
</g>
<g>
</g>
<g>
</g>
<g>
</g>
<g>
</g>
<g>
</g>
<g>
</g>
<g>
</g>
<g>
</g>
<g>
</g>
</svg>
